#N canvas 460 166 526 288 10;
#X obj 66 30 inlet;
#X obj 136 31 inlet;
#X obj 193 31 inlet;
#X obj 247 31 inlet;
#X obj 299 31 inlet;
#X obj 349 31 inlet;
#X obj 404 31 inlet;
#X obj 82 151 outlet;
#X obj 134 149 outlet;
#X obj 188 150 outlet;
#X obj 239 150 outlet;
#X obj 299 151 outlet;
#X obj 120 92 pyext scripts/flickr start;
#X obj 453 31 inlet;
#X connect 0 0 12 1;
#X connect 1 0 12 2;
#X connect 2 0 12 3;
#X connect 3 0 12 4;
#X connect 4 0 12 5;
#X connect 5 0 12 6;
#X connect 6 0 12 7;
#X connect 12 0 7 0;
#X connect 12 1 8 0;
#X connect 12 2 9 0;
#X connect 12 3 10 0;
#X connect 12 4 11 0;
#X connect 13 0 12 8;
