#N canvas 458 156 599 319 10;
#X obj 66 30 inlet;
#X obj 111 30 inlet;
#X obj 158 30 inlet;
#X obj 206 30 inlet;
#X obj 258 30 inlet;
#X obj 308 30 inlet;
#X obj 355 30 inlet;
#X obj 82 151 outlet;
#X obj 134 149 outlet;
#X obj 188 150 outlet;
#X obj 239 150 outlet;
#X obj 299 151 outlet;
#X obj 120 92 pyext scripts/imap start;
#X obj 403 30 inlet;
#X obj 447 30 inlet;
#X obj 491 30 inlet;
#X obj 359 152 outlet;
#X connect 0 0 12 1;
#X connect 1 0 12 2;
#X connect 2 0 12 3;
#X connect 3 0 12 4;
#X connect 4 0 12 5;
#X connect 5 0 12 6;
#X connect 6 0 12 7;
#X connect 12 0 7 0;
#X connect 12 1 8 0;
#X connect 12 2 9 0;
#X connect 12 3 10 0;
#X connect 12 4 11 0;
#X connect 12 5 16 0;
#X connect 13 0 12 8;
#X connect 14 0 12 9;
#X connect 15 0 12 10;
