#N canvas 555 129 643 652 10;
#X declare -lib py;
#X declare -path scripts;
#X floatatom 186 218 5 0 0 0 - - -;
#X floatatom 371 247 5 0 0 0 - - -;
#X obj 184 436 print 2;
#X obj 177 413 print 1;
#X obj 203 459 print 3;
#X obj 210 523 print debug;
#X obj 183 480 print 4;
#X obj 11 15 cnv 15 600 25 empty empty Qweb_library:_imap_help 20 12
0 14 -233017 -66577 0;
#X text 28 75 Description:;
#X text 30 416 Outlets:;
#X text 30 114 Inlets:;
#X text 27 58 Category:;
#X text 89 59 Source \;;
#X obj 13 560 cnv 15 600 25 empty empty Credits 20 12 0 14 -233017
-66577 0;
#X text 27 588 by Luca Carrubba and Luca Franceschini for pantaliQa
project. Thanks to Thomas Grill for pyext external and help. share/modify/cannibalize
as you want - www.estereotips.net // info@estereotips.net;
#X obj 472 69 import py;
#X obj 472 49 declare -path scripts;
#X text 107 75 abstraction that can perform IMAP research.;
#X floatatom 373 346 5 0 0 0 - - -;
#X text 105 141 2 username;
#X text 105 166 3 password;
#X obj 516 278 imap ---------;
#X text 105 190 4 service;
#X floatatom 220 373 5 0 0 0 - - -;
#X text 104 413 1 folders;
#X msg 180 192 imap.gmail.com;
#X text 105 286 7 SEARCH folder;
#X text 104 314 8 SEARCH query;
#X text 103 345 9 SEARCH field [0=Subject \, 1=From \, 2=Date];
#X text 103 371 10 SEARCH results;
#X msg 213 119 getf;
#X msg 259 119 search;
#X text 105 118 1 getf / search;
#X text 105 215 5 port (993);
#X text 104 246 6 secure [0=False \, 1=True] don't works now!;
#X text 103 435 2 mail from;
#X text 103 457 3 mail subject;
#X text 102 481 4 mail body;
#X text 102 503 5 mail attachments;
#X obj 231 502 print 5;
#X msg 200 316 puredata;
#X text 102 524 6 debug messages;
#X msg 208 288 inbox;
#X msg 181 167 password;
#X msg 181 143 yout@email.com;
#X connect 0 0 21 4;
#X connect 1 0 21 5;
#X connect 18 0 21 8;
#X connect 21 0 3 0;
#X connect 21 1 2 0;
#X connect 21 2 4 0;
#X connect 21 3 6 0;
#X connect 21 4 39 0;
#X connect 21 5 5 0;
#X connect 23 0 21 9;
#X connect 25 0 21 3;
#X connect 30 0 21 0;
#X connect 31 0 21 0;
#X connect 40 0 21 7;
#X connect 42 0 21 6;
#X connect 43 0 21 2;
#X connect 44 0 21 1;
