#N canvas 316 121 416 291 10;
#X obj 98 29 inlet;
#X obj 167 32 inlet;
#X obj 224 32 inlet;
#X obj 277 32 inlet;
#X obj 332 32 inlet;
#X obj 121 183 outlet;
#X obj 190 184 outlet;
#X obj 259 185 outlet;
#X obj 129 111 pyext scripts/jabber start;
#X connect 0 0 8 1;
#X connect 1 0 8 2;
#X connect 2 0 8 3;
#X connect 3 0 8 4;
#X connect 4 0 8 5;
#X connect 8 0 5 0;
#X connect 8 1 6 0;
#X connect 8 2 7 0;
