#N canvas 8 112 200 200 10;
#N canvas 18 84 420 300 META 1;
#X text 10 90 LICENSE LGPL;
#X text 10 30 NAME Qweb;
#X text 10 50 AUTHOR Luca Carrubba e Luca Franceschini;
#X text 10 70 DESCRIPTION collection of pyext object for get internet
service data;
#X text 10 110 VERSION 0.1;
#X restore 10 10 pd META;
