#N canvas 470 160 450 300 10;
#X obj 75 50 inlet;
#X obj 161 54 inlet;
#X obj 240 53 inlet;
#X obj 72 185 outlet;
#X obj 124 185 outlet;
#X obj 180 184 outlet;
#X obj 230 184 outlet;
#X obj 282 184 outlet;
#X obj 334 184 outlet;
#X obj 388 184 outlet;
#X obj 148 121 pyext scripts/videosearch start;
#X connect 0 0 10 1;
#X connect 1 0 10 2;
#X connect 2 0 10 3;
#X connect 10 0 3 0;
#X connect 10 1 4 0;
#X connect 10 2 5 0;
#X connect 10 3 6 0;
#X connect 10 4 7 0;
#X connect 10 5 8 0;
#X connect 10 6 9 0;
