#N canvas 472 127 629 410 10;
#X declare -lib py;
#X obj 225 245 print 2;
#X obj 205 221 print 1;
#X obj 211 290 print debug;
#X obj 11 15 cnv 15 600 25 empty empty Qweb_library:_wikipedia_help
20 12 0 14 -233017 -66577 0;
#X text 28 75 Description:;
#X text 30 226 Outlets:;
#X text 30 124 Inlets:;
#X text 27 58 Category:;
#X text 89 59 Source \;;
#X obj 13 327 cnv 15 600 25 empty empty Credits 20 12 0 14 -233017
-66577 0;
#X text 27 355 by Luca Carrubba and Luca Franceschini for pantaliQa
project. Thanks to Thomas Grill for pyext external and help. share/modify/cannibalize
as you want - www.estereotips.net // info@estereotips.net;
#X msg 214 125 puredata;
#X text 105 128 1 word to search;
#X obj 262 267 print 3;
#X text 103 291 4 debug messages;
#X text 107 75 abstraction that perform research on wikipedia.;
#X obj 486 233 wikipedia;
#X text 104 222 1 article title;
#X text 103 245 2 article sections;
#X text 103 268 3 article/section content;
#X text 105 151 2 wikipedia lang (default en);
#X msg 293 149 en;
#X msg 474 172 Code examples;
#X text 105 173 3 Text to retrive [MAIN \, ALL \, "section name"] (default
MAIN);
#X obj 517 52 import py;
#X connect 11 0 16 0;
#X connect 16 0 1 0;
#X connect 16 1 0 0;
#X connect 16 2 13 0;
#X connect 16 3 2 0;
#X connect 21 0 16 1;
#X connect 22 0 16 2;
