#N canvas 525 289 1364 682 10;
#X declare -lib py;
#X declare -path ..;
#X declare -lib list-abs;
#X declare -lib moocow;
#X msg 555 221 0 \, destroy;
#X obj 533 247 gemwin;
#N canvas 1 352 117 63 tweets 0;
#X restore 731 -30 pd tweets;
#X floatatom 580 9 5 0 0 0 - - -;
#X obj 207 128 twitter;
#X obj 578 29 s numTweets;
#X obj 242 104 r numTweets;
#X text 478 5 number of tweets;
#X obj 205 276 gemhead;
#X obj 208 315 colorRGB 0 0 0 1;
#X obj 207 295 alpha;
#X obj 308 291 line;
#X msg 309 271 0 0;
#X obj 313 247 r reset;
#X obj 423 44 s reset;
#X obj 424 20 bng 15 250 50 0 empty empty empty 17 7 0 10 -262144 -1
-1;
#X obj 424 -6 loadbang;
#N canvas 114 267 450 300 import 0;
#X obj 90 95 import py;
#X obj 92 57 declare -path ..;
#X obj 90 75 import list-abs;
#X obj 96 121 import moocow;
#X msg 223 94 \; pd dsp 1;
#X obj 223 65 loadbang;
#X connect 5 0 4 0;
#X restore 731 -50 pd import;
#X obj 209 388 text3d;
#X obj 208 209 del 200;
#X msg 241 366 5;
#X obj 241 346 loadbang;
#X obj 340 197 r showTweets;
#N canvas 1 68 450 300 dymCr 0;
#X obj 146 205 s pd-tweets;
#X msg 166 178 vis 1 \, selectall \, clear \, vis 0;
#X msg 152 128 obj 10 10 tweet;
#X obj 154 46 r numTweets;
#X obj 152 106 until;
#X msg 152 70 set \$1;
#X msg 152 87 13;
#X obj 228 155 r reset;
#X obj 230 70 inlet;
#X obj 230 94 s start;
#X connect 1 0 0 0;
#X connect 2 0 0 0;
#X connect 3 0 5 0;
#X connect 4 0 2 0;
#X connect 5 0 6 0;
#X connect 6 0 4 0;
#X connect 7 0 1 0;
#X connect 8 0 6 0;
#X connect 8 0 9 0;
#X restore 206 229 pd dymCr;
#X obj 210 153 t b a;
#N canvas 1 84 894 672 tweets2string 0;
#X obj 251 449 del 20;
#X obj 293 141 list-fifo;
#X msg 377 121 clear;
#X obj 375 101 r reset;
#X obj 290 106 r showTweets;
#X obj 266 572 list prepend string;
#X obj 297 166 any2bytes 128 -1;
#X obj 265 591 list trim;
#X obj 289 475 list-insert;
#X msg 292 451 10;
#X obj 271 233 list length;
#X obj 270 254 / 40;
#X obj 275 273 i;
#X obj 288 504 t l l;
#X obj 264 552 list-fifo;
#X obj 286 524 t l b;
#X obj 285 396 * 40;
#X obj 310 372 + 1;
#X obj 281 373 f 1;
#X obj 283 351 until;
#X msg 322 349 1;
#X obj 353 284 print grgr5;
#X msg 295 309 set \$1;
#X obj 275 288 t b f b;
#X msg 282 329 3;
#X obj 281 418 t b b f;
#X msg 218 533 clear;
#X obj 218 513 r reset;
#X obj 296 189 t a a;
#X obj 319 75 inlet;
#X obj 265 613 outlet;
#X connect 0 0 14 0;
#X connect 1 0 6 0;
#X connect 2 0 1 0;
#X connect 3 0 2 0;
#X connect 4 0 1 0;
#X connect 5 0 7 0;
#X connect 6 0 28 0;
#X connect 7 0 30 0;
#X connect 8 0 13 0;
#X connect 9 0 8 0;
#X connect 10 0 11 0;
#X connect 11 0 12 0;
#X connect 12 0 23 0;
#X connect 13 0 15 0;
#X connect 13 1 8 2;
#X connect 14 0 5 0;
#X connect 15 0 14 1;
#X connect 15 1 14 2;
#X connect 16 0 21 0;
#X connect 16 0 25 0;
#X connect 17 0 18 1;
#X connect 18 0 17 0;
#X connect 18 0 16 0;
#X connect 19 0 18 0;
#X connect 20 0 18 1;
#X connect 22 0 24 0;
#X connect 23 0 24 0;
#X connect 23 1 22 0;
#X connect 23 2 20 0;
#X connect 24 0 19 0;
#X connect 25 0 0 0;
#X connect 25 1 9 0;
#X connect 25 2 8 1;
#X connect 26 0 14 0;
#X connect 27 0 26 0;
#X connect 28 0 10 0;
#X connect 28 1 8 2;
#X connect 29 0 1 1;
#X restore 237 182 pd tweets2string;
#N canvas 1 58 450 300 gemmouse 0;
#X obj 107 174 s mY;
#X obj 91 149 s mX;
#X obj 91 84 gemmouse 4 4;
#X obj 125 147 s lClick;
#X obj 124 125 once;
#X obj 124 106 alternate;
#X connect 2 0 1 0;
#X connect 2 1 0 0;
#X connect 2 2 5 0;
#X connect 4 0 3 0;
#X connect 5 0 4 0;
#X connect 5 1 4 1;
#X restore 732 -9 pd gemmouse;
#X msg 512 163 reset \, create \, 1 \, color 1 1 1;
#N canvas 1 60 593 706 audio 0;
#X obj 57 496 catch~ left;
#X obj 137 494 catch~ right;
#X obj 82 602 dac~;
#X obj 76 -23 bng 15 250 50 0 empty empty empty 17 7 0 10 -262144 -1
-1;
#X obj 156 470 *~;
#X obj 82 464 *~;
#X obj 77 5 t b b b;
#N canvas 217 210 713 556 dronebubbles 0;
#X obj 78 83 hip~ 200;
#N canvas 234 228 496 538 rand_sig 0;
#X msg 33 362 \$1 \$2;
#X obj 287 132 delay;
#X obj 287 112 t b f;
#X obj 264 135 tgl 15 0 empty empty empty 0 -6 0 8 -262144 -1 -1 1
1;
#X obj 32 430 outlet~;
#X obj 33 40 inlet;
#X obj 73 39 inlet;
#X obj 32 407 *~ 0.8;
#X obj 21 111 cnv 15 170 180 empty empty empty 20 12 0 14 -233017 -66577
0;
#X obj 33 341 pack f f;
#X obj 84 321 + 1;
#X obj 33 91 t b b;
#X obj 33 160 t b;
#X obj 77 160 t b;
#X obj 110 183 random 200;
#X obj 110 208 + 1;
#X obj 110 229 / 100;
#X obj 110 249 - 1;
#X obj 33 183 random 200;
#X obj 33 208 + 1;
#X obj 33 229 / 100;
#X obj 33 249 - 1;
#X obj 110 271 * 0.2;
#X obj 33 138 moses 1;
#X obj 33 116 random 10;
#X obj 84 301 random 20;
#X obj 266 163 spigot;
#X obj 33 382 line~;
#X connect 0 0 27 0;
#X connect 1 0 26 0;
#X connect 2 0 1 0;
#X connect 2 1 1 1;
#X connect 3 0 26 1;
#X connect 5 0 3 0;
#X connect 6 0 11 0;
#X connect 7 0 4 0;
#X connect 9 0 0 0;
#X connect 10 0 9 1;
#X connect 10 0 2 0;
#X connect 11 0 24 0;
#X connect 11 1 25 0;
#X connect 12 0 18 0;
#X connect 13 0 14 0;
#X connect 14 0 15 0;
#X connect 15 0 16 0;
#X connect 16 0 17 0;
#X connect 17 0 22 0;
#X connect 18 0 19 0;
#X connect 19 0 20 0;
#X connect 20 0 21 0;
#X connect 21 0 9 0;
#X connect 22 0 9 0;
#X connect 23 0 12 0;
#X connect 23 1 13 0;
#X connect 24 0 23 0;
#X connect 25 0 10 0;
#X connect 26 0 11 0;
#X connect 27 0 7 0;
#X restore 60 59 pd rand_sig;
#X obj 66 509 outlet~;
#X obj 137 508 outlet~;
#X obj 59 10 loadbang;
#X msg 59 33 1;
#X obj 98 33 t b;
#X obj 239 448 expr~ max(min($v1 \, $f2/10) \, -$f2/10);
#X obj 279 477 expr~ max(min($v1 \, $f2/10) \, -$f2/10);
#X msg 488 420 10;
#X obj 488 400 loadbang;
#X obj 83 169 *~ 10000;
#X obj 62 214 *~ 5;
#X obj 194 184 loadbang;
#X floatatom 162 152 5 0 0 0 - - -;
#N canvas 527 226 496 538 rand_sig 0;
#X msg 33 399 \$1 \$2;
#X obj 33 374 pack f f;
#X obj 84 350 + 1;
#X obj 33 91 t b b;
#X obj 246 161 delay;
#X obj 246 129 t b f;
#X obj 228 165 tgl 15 0 empty empty empty 0 -6 0 8 -262144 -1 -1 1
1;
#X floatatom 183 282 5 0 0 0 - - -;
#X obj 33 175 t b;
#X obj 77 175 t b;
#X obj 110 206 random 200;
#X obj 110 231 + 1;
#X obj 110 252 / 100;
#X obj 110 272 - 1;
#X obj 33 206 random 200;
#X obj 33 231 + 1;
#X obj 33 252 / 100;
#X obj 33 272 - 1;
#X obj 113 294 * 0.2;
#X obj 33 153 moses 1;
#X obj 33 116 random 10;
#X obj 32 467 outlet~;
#X obj 32 16 inlet;
#X obj 97 17 inlet;
#X obj 28 51 bng 15 250 50 0 empty empty empty 0 -6 0 8 -262144 -1
-1;
#X obj 32 444 *~ 0.8;
#X obj 84 330 random 2;
#X obj 231 205 spigot;
#X obj 33 419 line~;
#X connect 0 0 28 0;
#X connect 1 0 0 0;
#X connect 2 0 1 1;
#X connect 2 0 5 0;
#X connect 3 0 20 0;
#X connect 3 1 26 0;
#X connect 4 0 27 0;
#X connect 5 0 4 0;
#X connect 5 1 4 1;
#X connect 6 0 27 1;
#X connect 7 0 26 1;
#X connect 8 0 14 0;
#X connect 9 0 10 0;
#X connect 10 0 11 0;
#X connect 11 0 12 0;
#X connect 12 0 13 0;
#X connect 13 0 18 0;
#X connect 14 0 15 0;
#X connect 15 0 16 0;
#X connect 16 0 17 0;
#X connect 17 0 1 0;
#X connect 18 0 1 0;
#X connect 19 0 8 0;
#X connect 19 1 9 0;
#X connect 20 0 19 0;
#X connect 22 0 6 0;
#X connect 23 0 3 0;
#X connect 24 0 3 0;
#X connect 25 0 21 0;
#X connect 26 0 2 0;
#X connect 27 0 3 0;
#X connect 28 0 25 0;
#X restore 61 117 pd rand_sig;
#X obj 60 144 *~ 2;
#X obj 61 189 vcf~ 99;
#X floatatom 194 225 5 0 0 0 - - -;
#X obj 222 291 sig~ 1;
#X obj 221 332 -~;
#X obj 178 375 *~;
#X obj 206 376 *~;
#X msg 194 205 5;
#X msg 226 269 1;
#X obj 149 270 abs~;
#X obj 194 243 cyclone/rand~;
#X connect 0 0 11 0;
#X connect 1 0 0 0;
#X connect 4 0 5 0;
#X connect 4 0 6 0;
#X connect 5 0 1 0;
#X connect 5 0 15 0;
#X connect 6 0 1 1;
#X connect 6 0 15 1;
#X connect 7 0 2 0;
#X connect 8 0 3 0;
#X connect 9 0 7 1;
#X connect 9 0 8 1;
#X connect 10 0 9 0;
#X connect 11 0 17 1;
#X connect 12 0 21 0;
#X connect 12 0 22 0;
#X connect 13 0 23 0;
#X connect 13 0 24 0;
#X connect 14 0 17 2;
#X connect 15 0 16 0;
#X connect 16 0 17 0;
#X connect 17 0 12 0;
#X connect 18 0 26 0;
#X connect 19 0 20 0;
#X connect 20 0 22 1;
#X connect 21 0 7 0;
#X connect 22 0 8 0;
#X connect 23 0 18 0;
#X connect 24 0 19 0;
#X connect 25 0 20 1;
#X connect 25 0 21 1;
#X connect 26 0 25 0;
#X restore -39 237 pd dronebubbles;
#N canvas 1 58 450 300 limiter 0;
#X obj 43 34 inlet~;
#X obj 44 393 /~;
#X obj 44 422 outlet~;
#X obj 94 171 dbtorms;
#X obj 94 150 + 3;
#X obj 94 195 + 0.1;
#X obj 94 242 moses 1;
#X obj 94 312 f;
#X obj 94 288 + 0.5;
#X obj 94 265 * 0.5;
#X obj 94 78 env~ 128 64;
#X obj 95 217 env+ 11;
#X obj 43 360 z~ 128;
#X obj 94 359 line~;
#X obj 195 79 env~ 1024 128;
#X obj 94 122 max;
#X msg 94 336 \$1 4;
#X connect 0 0 10 0;
#X connect 0 0 12 0;
#X connect 0 0 14 0;
#X connect 1 0 2 0;
#X connect 3 0 5 0;
#X connect 4 0 3 0;
#X connect 5 0 11 0;
#X connect 6 0 9 0;
#X connect 6 1 7 0;
#X connect 7 0 16 0;
#X connect 8 0 7 0;
#X connect 9 0 8 0;
#X connect 10 0 15 0;
#X connect 11 0 6 0;
#X connect 12 0 1 0;
#X connect 13 0 1 1;
#X connect 14 0 15 1;
#X connect 15 0 4 0;
#X connect 16 0 13 0;
#X restore 57 310 pd limiter;
#N canvas 1 58 450 300 limiter 0;
#X obj 43 34 inlet~;
#X obj 44 393 /~;
#X obj 44 422 outlet~;
#X obj 94 171 dbtorms;
#X obj 94 150 + 3;
#X obj 94 195 + 0.1;
#X obj 94 242 moses 1;
#X obj 94 312 f;
#X obj 94 288 + 0.5;
#X obj 94 265 * 0.5;
#X obj 94 78 env~ 128 64;
#X obj 95 217 env+ 11;
#X obj 43 360 z~ 128;
#X obj 94 359 line~;
#X obj 195 79 env~ 1024 128;
#X obj 94 122 max;
#X msg 94 336 \$1 4;
#X connect 0 0 10 0;
#X connect 0 0 12 0;
#X connect 0 0 14 0;
#X connect 1 0 2 0;
#X connect 3 0 5 0;
#X connect 4 0 3 0;
#X connect 5 0 11 0;
#X connect 6 0 9 0;
#X connect 6 1 7 0;
#X connect 7 0 16 0;
#X connect 8 0 7 0;
#X connect 9 0 8 0;
#X connect 10 0 15 0;
#X connect 11 0 6 0;
#X connect 12 0 1 0;
#X connect 13 0 1 1;
#X connect 14 0 15 1;
#X connect 15 0 4 0;
#X connect 16 0 13 0;
#X restore -30 314 pd limiter;
#N canvas 1 68 681 566 fade 0;
#X obj 267 251 line~;
#X obj 176 354 *~;
#X obj 273 92 inlet;
#X obj 273 144 bng 15 250 50 0 empty empty empty 17 7 0 10 -262144
-1 -1;
#X obj 380 84 inlet;
#X obj 380 135 bng 15 250 50 0 empty empty empty 17 7 0 10 -262144
-1 -1;
#X obj 166 100 inlet~;
#X obj 198 396 outlet~;
#X obj 221 309 fade~ _hann;
#X msg 273 208 0 \, 1 1000;
#X msg 371 218 1 \, 0 1000;
#X obj 274 175 float 1000;
#X obj 374 179 float 1000;
#X connect 0 0 8 0;
#X connect 1 0 7 0;
#X connect 2 0 3 0;
#X connect 3 0 11 0;
#X connect 4 0 5 0;
#X connect 5 0 12 0;
#X connect 6 0 1 0;
#X connect 8 0 1 1;
#X connect 9 0 0 0;
#X connect 10 0 0 0;
#X connect 11 0 9 0;
#X connect 12 0 10 0;
#X restore 18 379 pd fade;
#N canvas 1 63 681 566 fade 0;
#X obj 267 251 line~;
#X obj 176 354 *~;
#X obj 273 92 inlet;
#X obj 273 144 bng 15 250 50 0 empty empty empty 17 7 0 10 -262144
-1 -1;
#X obj 380 84 inlet;
#X obj 380 135 bng 15 250 50 0 empty empty empty 17 7 0 10 -262144
-1 -1;
#X obj 166 100 inlet~;
#X obj 198 396 outlet~;
#X obj 221 309 fade~ _hann;
#X msg 273 208 0 \, 1 1000;
#X msg 371 218 1 \, 0 1000;
#X obj 274 175 float 1000;
#X obj 374 179 float 1000;
#X connect 0 0 8 0;
#X connect 1 0 7 0;
#X connect 2 0 3 0;
#X connect 3 0 11 0;
#X connect 4 0 5 0;
#X connect 5 0 12 0;
#X connect 6 0 1 0;
#X connect 8 0 1 1;
#X connect 9 0 0 0;
#X connect 10 0 0 0;
#X connect 11 0 9 0;
#X connect 12 0 10 0;
#X restore 78 378 pd fade;
#N canvas 1 58 450 300 bing 0;
#X obj 37 25 inlet;
#X obj 37 208 outlet;
#X obj 37 49 bng 15 250 50 0 empty empty empty 17 7 0 10 -262144 -1
-1;
#X text 49 422 input: bang or any event;
#X text 48 441 output: number between 0 and 1;
#X text 50 476 Les Objets Volants 2008;
#X obj 35 81 random 50;
#X obj 37 115 + 50;
#X obj 37 161 / 100;
#X connect 0 0 2 0;
#X connect 2 0 6 0;
#X connect 6 0 7 0;
#X connect 7 0 8 0;
#X connect 8 0 1 0;
#X restore 203 400 pd bing;
#X obj 125 552 *~ 1;
#X obj 69 553 *~ 1;
#X text 129 50 this audio patch is from JKP un Boite;
#X obj 78 -50 r start;
#X obj 321 440 r reset;
#X obj 324 525 line;
#X msg 326 465 0 0;
#X msg 362 465 1 1000;
#N canvas 1 63 546 683 killed 0;
#X floatatom 138 375 5 0 0 0 - - -;
#X obj 188 313 t b f;
#X floatatom 329 362 5 0 0 0 - - -;
#X obj 239 359 f;
#X obj 138 394 osc~ 440;
#X msg 191 369 0.25;
#X obj 254 328 t b b b;
#X obj 239 416 line~;
#X obj 139 443 *~;
#X msg 318 389 0.95;
#X msg 239 389 0 \$1;
#X obj 158 237 random 3;
#X obj 160 341 * 25;
#X obj 158 259 + 2;
#X obj 329 224 random 10;
#X obj 329 271 + 90;
#X obj 329 247 * 50;
#X obj 329 336 line;
#X obj 329 308 pack 0 0;
#X obj 129 495 dac~;
#X obj 228 208 t b b b;
#X obj 230 169 r showTweets;
#X msg 186 292 84;
#X obj 189 259 loadbang;
#X obj 229 189 del 900;
#X connect 0 0 4 0;
#X connect 1 0 12 0;
#X connect 1 1 12 1;
#X connect 2 0 3 1;
#X connect 3 0 10 0;
#X connect 4 0 8 0;
#X connect 5 0 4 1;
#X connect 6 0 3 0;
#X connect 6 1 9 0;
#X connect 6 2 5 0;
#X connect 7 0 8 1;
#X connect 8 0 19 0;
#X connect 8 0 19 1;
#X connect 9 0 7 0;
#X connect 10 0 7 0;
#X connect 11 0 13 0;
#X connect 12 0 0 0;
#X connect 13 0 12 0;
#X connect 14 0 16 0;
#X connect 15 0 18 0;
#X connect 16 0 15 0;
#X connect 17 0 2 0;
#X connect 18 0 17 0;
#X connect 20 0 11 0;
#X connect 20 1 6 0;
#X connect 20 2 14 0;
#X connect 21 0 24 0;
#X connect 22 0 1 0;
#X connect 23 0 22 0;
#X connect 24 0 20 0;
#X restore 365 201 pd killed;
#X connect 0 0 14 0;
#X connect 1 0 13 0;
#X connect 3 0 6 0;
#X connect 4 0 13 0;
#X connect 5 0 14 0;
#X connect 6 0 10 1;
#X connect 6 0 11 1;
#X connect 6 1 12 0;
#X connect 6 2 20 0;
#X connect 7 0 9 0;
#X connect 7 1 8 0;
#X connect 8 0 11 0;
#X connect 9 0 10 0;
#X connect 10 0 5 0;
#X connect 11 0 4 0;
#X connect 12 0 5 1;
#X connect 12 0 4 1;
#X connect 13 0 2 1;
#X connect 14 0 2 0;
#X connect 16 0 3 0;
#X connect 17 0 19 0;
#X connect 18 0 14 1;
#X connect 18 0 13 1;
#X connect 19 0 18 0;
#X connect 20 0 18 0;
#X restore 728 12 pd audio;
#X obj 216 -2 bng 15 250 50 0 empty empty empty 17 7 0 10 -262144 -1
-1;
#X msg 334 271 0 \, 1 3050;
#X obj 214 16 entry 100 30 grey70 black;
#X text 155 -21 write some content to search amd press bang;
#X text 49 -100 example of a basic twitter visualization using twitter
object. Click inside every circle to visualize a tweet;
#X connect 0 0 1 0;
#X connect 3 0 5 0;
#X connect 4 0 24 0;
#X connect 6 0 4 1;
#X connect 8 0 10 0;
#X connect 9 0 18 0;
#X connect 10 0 9 0;
#X connect 11 0 9 4;
#X connect 12 0 11 0;
#X connect 13 0 12 0;
#X connect 15 0 14 0;
#X connect 16 0 15 0;
#X connect 19 0 23 0;
#X connect 20 0 18 1;
#X connect 21 0 20 0;
#X connect 22 0 30 0;
#X connect 24 0 19 0;
#X connect 24 1 25 0;
#X connect 25 0 18 0;
#X connect 27 0 1 0;
#X connect 29 0 31 0;
#X connect 30 0 11 0;
#X connect 31 0 4 0;
