#N canvas 1 58 1022 708 10;
#X obj 238 -210 gemhead;
#X obj 234 -83 colorRGB 1 0 0;
#X obj 237 -191 alpha;
#X obj 302 -33 bng 15 250 50 0 empty empty empty 17 7 0 10 -262144
-1 -1;
#X obj 231 11 circle 0.1;
#X obj 303 -15 random 20;
#X obj 304 9 / 40;
#X obj 236 -61 translateXYZ;
#X obj 407 -141 gemhead;
#X obj 406 -122 alpha;
#X obj 409 -51 circle 0.1;
#X obj 409 -68 translateXYZ;
#X obj 349 8 - 0.15;
#X obj 355 -268 line;
#X obj 355 -236 / 1000;
#X obj 359 -319 alternate;
#X obj 357 -342 metro 700;
#X msg 395 -290 300 700;
#X msg 340 -292 100 700;
#X obj 408 -93 colorRGB 1 0 0 1;
#X obj -336 30 bng 15 250 50 0 empty empty empty 17 7 0 10 -262144
-1 -1;
#X obj 214 -279 line;
#X msg 247 -302 1 0;
#X msg 198 -304 0 1500;
#X msg 240 -354 0;
#X msg 357 -364 1;
#X obj 352 -522 initbang;
#X obj 339 -40 initbang;
#X obj 248 -330 initbang;
#X obj 277 -185 bng 15 250 50 0 empty empty empty 17 7 0 10 -262144
-1 -1;
#N canvas 1 63 450 300 colors 0;
#X obj 147 23 / 100;
#X obj 146 7 random 100;
#X obj 148 45 outlet;
#X obj 221 21 / 100;
#X obj 220 5 random 100;
#X obj 222 43 outlet;
#X obj 293 22 / 100;
#X obj 292 6 random 100;
#X obj 294 44 outlet;
#X obj 205 -94 initbang;
#X connect 0 0 2 0;
#X connect 1 0 0 0;
#X connect 3 0 5 0;
#X connect 4 0 3 0;
#X connect 6 0 8 0;
#X connect 7 0 6 0;
#X connect 9 0 1 0;
#X connect 9 0 4 0;
#X connect 9 0 7 0;
#X restore 254 -150 pd colors;
#X obj 212 -455 t b b b;
#X obj 252 -424 s showTweets;
#N canvas 1433 142 450 300 positionCompare 0;
#X msg -111 -107 load 0 4;
#X msg 33 -103 load 0 4;
#X obj -110 -154 r mX;
#X obj -4 -148 r mY;
#X obj 60 -199 / 100;
#X obj 59 -231 random 800;
#X obj 60 -173 - 4;
#X obj 127 -195 / 100;
#X obj 126 -227 random 800;
#X obj 128 -170 - 4;
#X floatatom 42 32 5 0 0 0 - - -;
#X floatatom 88 33 5 0 0 0 - - -;
#X obj 78 57 >;
#X obj 43 9 + 0.2;
#X obj 90 10 - 0.2;
#X obj 33 54 <;
#X obj 35 74 tgl 15 0 empty empty empty 17 7 0 10 -262144 -1 -1 1 1
;
#X obj 77 75 tgl 15 0 empty empty empty 17 7 0 10 -262144 -1 -1 0 1
;
#X obj 54 135 &&;
#X obj -96 202 spigot 0;
#X obj -98 183 r lClick;
#X floatatom -69 21 5 0 0 0 - - -;
#X floatatom -23 22 5 0 0 0 - - -;
#X obj -76 63 tgl 15 0 empty empty empty 17 7 0 10 -262144 -1 -1 0
1;
#X obj -34 64 tgl 15 0 empty empty empty 17 7 0 10 -262144 -1 -1 1
1;
#X obj -57 124 &&;
#X obj -70 -2 - 0.2;
#X obj -21 -1 + 0.2;
#X obj -78 43 >;
#X obj -33 46 <;
#X obj -16 166 &&;
#X obj -68 -151 initbang;
#X obj 96 -320 initbang;
#X msg -76 -129 -4;
#X msg -45 -128 4;
#X obj -112 -82 autoscale;
#X obj 39 -142 initbang;
#X msg 90 -106 4;
#X msg 121 -105 -4;
#X obj 33 -70 autoscale;
#X obj 150 -56 outlet X;
#X obj 194 -56 outlet Y;
#X obj -92 233 outlet lclick;
#X connect 0 0 35 0;
#X connect 1 0 39 0;
#X connect 2 0 35 0;
#X connect 3 0 39 0;
#X connect 4 0 6 0;
#X connect 5 0 4 0;
#X connect 6 0 26 0;
#X connect 6 0 27 0;
#X connect 6 0 40 0;
#X connect 7 0 9 0;
#X connect 8 0 7 0;
#X connect 9 0 14 0;
#X connect 9 0 13 0;
#X connect 9 0 41 0;
#X connect 10 0 15 1;
#X connect 11 0 12 1;
#X connect 12 0 17 0;
#X connect 13 0 10 0;
#X connect 14 0 11 0;
#X connect 15 0 16 0;
#X connect 16 0 18 0;
#X connect 17 0 18 1;
#X connect 18 0 30 1;
#X connect 19 0 42 0;
#X connect 20 0 19 0;
#X connect 21 0 28 1;
#X connect 22 0 29 1;
#X connect 23 0 25 0;
#X connect 24 0 25 1;
#X connect 25 0 30 0;
#X connect 26 0 21 0;
#X connect 27 0 22 0;
#X connect 28 0 23 0;
#X connect 29 0 24 0;
#X connect 30 0 19 1;
#X connect 31 0 0 0;
#X connect 31 0 33 0;
#X connect 31 0 34 0;
#X connect 32 0 5 0;
#X connect 32 0 8 0;
#X connect 33 0 35 1;
#X connect 34 0 35 2;
#X connect 35 0 28 0;
#X connect 35 0 29 0;
#X connect 36 0 1 0;
#X connect 36 0 37 0;
#X connect 36 0 38 0;
#X connect 37 0 39 1;
#X connect 38 0 39 2;
#X connect 39 0 15 0;
#X connect 39 0 12 0;
#X restore 207 -485 pd positionCompare;
#X obj 354 -441 line;
#X obj 355 -477 + 800;
#X obj 350 -401 sel 1;
#X obj 352 -420 t f f f;
#X obj 354 -499 random 1000;
#X msg 353 -458 0 \, 1 \$1;
#X obj 331 313 vsl 15 105 0 1 0 0 \$0-volume-level empty Vol 0 -9 0
10 -258113 -1 -1 6500 1;
#X obj 497 446 random-\$1;
#X obj 374 422 knob 25 25 0.01 1 1 0 \$0-reverb-level empty Reverb
0 -8 0 8 -4160 -1 -1 0 1;
#X obj 332 276 tgl 15 0 empty empty On/Off 0 -10 0 10 -258113 -1 -1
0 1;
#X obj 462 362 select 0 1;
#X obj 462 392 bng 15 250 50 0 empty empty empty 17 7 0 10 -262144
-1 -1;
#X obj 530 391 bng 15 250 50 0 empty empty empty 17 7 0 10 -262144
-1 -1;
#X obj 373 379 knob 25 25 0.01 1 1 0 \$0-low empty Eq_low 0 -8 0 8
-4160 -1 -1 0 1;
#X obj 374 337 knob 25 25 0.01 1 1 0 \$0-mid empty Eq_mid 0 -8 0 8
-4160 -1 -1 0 1;
#X obj 373 295 knob 25 25 0.01 1 1 0 \$0-high empty Eq_high 0 -8 0
8 -4160 -1 -1 0 1;
#X obj 236 325 switch~;
#X obj 331 443 tgl 15 0 preview empty XX 0 -10 0 10 -258113 -1 -1 0
1;
#X connect 0 0 2 0;
#X connect 1 0 7 0;
#X connect 2 0 1 0;
#X connect 3 0 5 0;
#X connect 5 0 6 0;
#X connect 6 0 4 1;
#X connect 6 0 12 0;
#X connect 7 0 4 0;
#X connect 8 0 9 0;
#X connect 9 0 19 0;
#X connect 11 0 10 0;
#X connect 12 0 10 1;
#X connect 13 0 14 0;
#X connect 14 0 1 4;
#X connect 15 0 18 0;
#X connect 15 1 17 0;
#X connect 16 0 15 0;
#X connect 17 0 13 0;
#X connect 18 0 13 0;
#X connect 19 0 11 0;
#X connect 21 0 19 4;
#X connect 21 0 1 4;
#X connect 22 0 21 0;
#X connect 23 0 21 0;
#X connect 24 0 16 0;
#X connect 25 0 16 0;
#X connect 26 0 38 0;
#X connect 27 0 3 0;
#X connect 28 0 22 0;
#X connect 30 0 1 1;
#X connect 30 0 19 1;
#X connect 30 1 1 2;
#X connect 30 1 19 2;
#X connect 30 2 1 3;
#X connect 30 2 19 3;
#X connect 31 0 24 0;
#X connect 31 1 23 0;
#X connect 31 2 32 0;
#X connect 33 0 31 0;
#X connect 33 1 7 1;
#X connect 33 1 11 1;
#X connect 33 2 7 2;
#X connect 33 2 11 2;
#X connect 34 0 37 0;
#X connect 35 0 39 0;
#X connect 36 0 25 0;
#X connect 37 0 36 0;
#X connect 37 1 1 4;
#X connect 37 2 19 4;
#X connect 38 0 35 0;
#X connect 39 0 34 0;
#X connect 43 0 44 0;
#X connect 43 0 50 0;
#X connect 44 0 45 0;
#X connect 44 1 46 0;
#X connect 45 0 41 1;
#X connect 46 0 41 0;
