#N canvas 1 84 1364 682 10;
#X declare -lib py;
#X declare -path ..;
#X declare -lib list-abs;
#X declare -lib moocow;
#N canvas 110 277 450 300 import 0;
#X obj 90 95 import py;
#X obj 92 57 declare -path ..;
#X obj 90 75 import list-abs;
#X obj 96 121 import moocow;
#X msg 223 94 \; pd dsp 1;
#X obj 223 65 loadbang;
#X connect 5 0 4 0;
#X restore 731 -50 pd import;
#X obj 67 471 cnv 15 600 25 empty empty Credits 20 12 0 14 -233017
-66577 0;
#X text 81 499 by Luca Carrubba and Luca Franceschini for pantaliQa
project. Thanks to Thomas Grill for pyext external and help. share/modify/cannibalize
as you want - www.estereotips.net // info@estereotips.net;
#X obj 257 94 wikipedia;
#X msg 258 34 puredata;
#X obj 296 111 any2bytes;
#X obj 274 215 mtof;
#X obj 274 266 *~ 1;
#X obj 264 323 dac~;
#X obj 297 134 list-drip;
#X obj 275 242 osc~;
#X obj 271 165 list-fifo;
#X obj 221 132 metro 300;
#X obj 199 92 tgl 15 0 empty empty empty 17 7 0 10 -262144 -1 -1 1
1;
#X obj 200 114 t f f;
#X msg 764 247 0 \, destroy;
#X obj 742 273 gemwin;
#X obj 414 302 gemhead;
#X obj 417 341 colorRGB 0 0 0 1;
#X obj 416 321 alpha;
#X obj 418 414 text3d;
#X obj 450 372 loadbang;
#X obj 489 248 / 100;
#X obj 488 273 alternate;
#X obj 538 294 alternate;
#X obj 372 269 prepend text;
#X obj 357 220 bytes2any;
#X obj 277 192 t a a a;
#X msg 721 189 reset \, create \, 1;
#X msg 450 392 15;
#X text 46 -85 wikipedia sonifier;
#X text 23 29 1 -> write content you want to search;
#X text 42 91 2 -> start sonification;
#X text 551 190 3 -> start visualization;
#X obj 257 66 t a b;
#X connect 3 2 5 0;
#X connect 4 0 34 0;
#X connect 5 0 9 0;
#X connect 6 0 10 0;
#X connect 7 0 8 0;
#X connect 7 0 8 1;
#X connect 9 0 11 1;
#X connect 10 0 7 0;
#X connect 11 0 27 0;
#X connect 12 0 11 0;
#X connect 13 0 14 0;
#X connect 14 0 7 1;
#X connect 14 1 12 0;
#X connect 15 0 16 0;
#X connect 17 0 19 0;
#X connect 18 0 20 0;
#X connect 19 0 18 0;
#X connect 21 0 29 0;
#X connect 22 0 23 0;
#X connect 23 0 18 1;
#X connect 23 1 24 0;
#X connect 24 0 18 2;
#X connect 24 1 18 3;
#X connect 25 0 20 0;
#X connect 26 0 25 0;
#X connect 27 0 6 0;
#X connect 27 1 22 0;
#X connect 27 2 26 0;
#X connect 28 0 16 0;
#X connect 29 0 20 1;
#X connect 34 0 3 0;
#X connect 34 1 11 2;
