#N canvas 1583 107 739 659 10;
#X declare -lib py;
#X declare -path ..;
#X obj -359 147 videosearch;
#X obj -349 205 urldownload;
#X msg -272 178 /tmp;
#X obj -141 71 import py;
#X obj -321 233 hsl 128 15 0 1 0 0 empty empty empty -2 -8 0 10 -262144
-1 -1 0 1;
#X obj -326 254 sel 1;
#X obj -327 276 bng 15 250 50 0 empty empty empty 17 7 0 10 -262144
-1 -1;
#X obj -373 410 converter ---;
#X msg -294 364 symbol /tmp;
#X obj -326 321 bng 15 250 50 0 empty empty empty 17 7 0 10 -262144
-1 -1;
#N canvas 1 58 450 300 gemwin 0;
#X obj 132 136 gemwin;
#X obj 67 89 outlet;
#X obj 67 10 inlet;
#X msg 67 70 set destroy;
#X msg 132 112 create \, 1;
#X msg 198 112 destroy;
#X msg 156 71 set create;
#X obj 67 41 route create;
#X connect 2 0 7 0;
#X connect 3 0 1 0;
#X connect 4 0 0 0;
#X connect 5 0 0 0;
#X connect 6 0 1 0;
#X connect 7 0 3 0;
#X connect 7 0 4 0;
#X connect 7 1 6 0;
#X connect 7 1 5 0;
#X restore -704 321 pd gemwin;
#X msg -704 302 destroy;
#X text -708 281 Create window:;
#X obj -389 453 gemhead;
#X obj -391 645 pix_texture;
#X obj -364 604 unpack 0 0 0;
#X floatatom -374 627 5 0 0 3 length - -;
#X floatatom -325 627 5 0 0 3 width - -;
#X floatatom -275 627 5 0 0 3 height - -;
#X obj -320 585 bng 15 250 50 0 empty empty end_reached 20 7 0 10 -262144
-1 -1;
#X floatatom -338 550 5 0 10000 1 frame# - -;
#X msg -375 480 open \$1;
#X obj -391 667 rectangle 4 3;
#X obj -389 568 pix_film;
#X msg -367 523 auto 1;
#X obj -366 503 loadbang;
#X msg -330 118 1;
#X obj -274 102 loadbang;
#X text -704 125 here we use videosearch \, urldownload and converter
object;
#X text -704 143 to search \, get and convert a video from youtube
and use it on Gem;
#X obj -325 292 del 20;
#X text -712 210 could be slow. It depends from your internet connection
\, and processor;
#X obj -292 336 loadbang;
#X text -473 230 download progression ->;
#X msg -444 59 libre;
#X text -217 364 dir where save converted files;
#X text -695 35 youtube player example;
#X obj -357 41 entry 100 20 grey70 black;
#X obj -353 -3 bng 15 250 50 0 empty empty empty 17 7 0 10 -262144
-1 -1;
#X obj -300 443 bng 15 250 50 0 empty empty empty 17 7 0 10 -262144
-1 -1;
#X text -278 440 conversion finished;
#X obj -225 7 loadbang;
#X text -422 -29 write down a key word and press bang to start;
#X msg -230 35 size 100 20;
#X obj -141 130 declare -path ..;
#X connect 0 1 1 0;
#X connect 0 4 1 1;
#X connect 1 0 7 1;
#X connect 1 1 4 0;
#X connect 2 0 1 2;
#X connect 4 0 5 0;
#X connect 5 0 6 0;
#X connect 6 0 30 0;
#X connect 7 0 21 0;
#X connect 7 1 39 0;
#X connect 8 0 7 2;
#X connect 9 0 7 0;
#X connect 10 0 11 0;
#X connect 11 0 10 0;
#X connect 13 0 23 0;
#X connect 14 0 22 0;
#X connect 15 0 16 0;
#X connect 15 1 17 0;
#X connect 15 2 18 0;
#X connect 19 0 20 0;
#X connect 20 0 23 1;
#X connect 21 0 23 0;
#X connect 23 0 14 0;
#X connect 23 1 15 0;
#X connect 23 2 19 0;
#X connect 24 0 23 0;
#X connect 25 0 24 0;
#X connect 26 0 0 1;
#X connect 27 0 26 0;
#X connect 27 0 2 0;
#X connect 30 0 9 0;
#X connect 32 0 8 0;
#X connect 34 0 0 0;
#X connect 37 0 0 0;
#X connect 38 0 37 0;
#X connect 41 0 43 0;
#X connect 43 0 37 0;
